<?xml version="1.0" standalone="no"?>
<!DOCTYPE svg PUBLIC "-//W3C//DTD SVG 20010904//EN"
 "http://www.w3.org/TR/2001/REC-SVG-20010904/DTD/svg10.dtd">
<svg version="1.0" xmlns="http://www.w3.org/2000/svg"
 width="64.000000pt" height="64.000000pt" viewBox="0 0 64.000000 64.000000"
 preserveAspectRatio="xMidYMid meet">

<g transform="translate(0.000000,64.000000) scale(0.100000,-0.100000)"
fill="#000000" stroke="none">
<path d="M213 510 c-10 -14 -19 -52 -21 -89 -4 -54 -2 -67 14 -78 27 -20 29
-17 26 35 -4 47 -2 50 32 70 20 12 36 28 36 36 0 8 3 21 6 29 4 11 -5 16 -36
19 -35 3 -43 0 -57 -22z"/>
<path d="M305 113 c-6 -2 -9 -27 -7 -58 3 -46 7 -55 23 -55 22 0 23 1 8 34
-10 20 -9 28 5 41 9 9 16 20 16 25 0 9 -30 18 -45 13z"/>
</g>
</svg>
