<?xml version="1.0" standalone="no"?>
<!DOCTYPE svg PUBLIC "-//W3C//DTD SVG 20010904//EN"
 "http://www.w3.org/TR/2001/REC-SVG-20010904/DTD/svg10.dtd">
<svg version="1.0" xmlns="http://www.w3.org/2000/svg"
 width="64.000000pt" height="64.000000pt" viewBox="0 0 64.000000 64.000000"
 preserveAspectRatio="xMidYMid meet">

<g transform="translate(0.000000,64.000000) scale(0.100000,-0.100000)"
fill="#000000" stroke="none">
<path d="M120 346 c-41 -29 -71 -87 -77 -151 l-6 -55 135 0 c131 0 136 -1 151
-24 35 -53 135 -72 194 -36 88 53 101 164 29 236 -52 52 -119 61 -183 26 -13
-8 -23 -6 -36 6 -13 11 -40 16 -98 17 -66 1 -84 -2 -109 -19z"/>
</g>
</svg>
