<?xml version="1.0" standalone="no"?>
<!DOCTYPE svg PUBLIC "-//W3C//DTD SVG 20010904//EN"
 "http://www.w3.org/TR/2001/REC-SVG-20010904/DTD/svg10.dtd">
<svg version="1.0" xmlns="http://www.w3.org/2000/svg"
 width="64.000000pt" height="64.000000pt" viewBox="0 0 64.000000 64.000000"
 preserveAspectRatio="xMidYMid meet">

<g transform="translate(0.000000,64.000000) scale(0.100000,-0.100000)"
fill="#000000" stroke="none">
<path d="M280 630 c0 -5 7 -10 15 -10 8 0 15 5 15 10 0 6 -7 10 -15 10 -8 0
-15 -4 -15 -10z"/>
<path d="M215 620 c-3 -5 1 -10 9 -10 9 0 16 5 16 10 0 6 -4 10 -9 10 -6 0
-13 -4 -16 -10z"/>
<path d="M345 620 c3 -5 10 -10 16 -10 5 0 9 5 9 10 0 6 -7 10 -16 10 -8 0
-12 -4 -9 -10z"/>
<path d="M165 589 c-10 -15 3 -25 16 -12 7 7 7 13 1 17 -6 3 -14 1 -17 -5z"/>
<path d="M235 586 c-62 -28 -95 -87 -95 -172 0 -31 6 -46 25 -62 14 -12 25
-30 25 -41 0 -10 11 -29 25 -42 13 -13 25 -34 25 -45 0 -17 -8 -22 -40 -27
-23 -3 -52 -13 -66 -22 -27 -18 -56 -74 -46 -90 3 -5 11 4 18 20 18 45 47 66
101 73 40 6 49 11 51 30 3 18 10 22 38 22 30 0 34 -3 34 -25 0 -21 5 -25 30
-25 28 0 30 -3 30 -35 0 -45 23 -100 47 -114 13 -8 -17 -10 -119 -11 -99 0
-138 3 -142 13 -5 9 -7 9 -12 0 -8 -19 -64 -17 -64 2 0 8 -5 15 -11 15 -6 0
-9 -10 -7 -22 3 -23 4 -23 212 -26 l209 -2 39 25 c36 24 58 58 58 91 0 26 -17
14 -26 -18 -13 -44 -68 -82 -98 -66 -41 21 -55 41 -62 84 -10 72 -1 92 49 99
60 9 111 -5 115 -33 4 -24 22 -31 22 -8 0 31 -14 46 -53 57 -48 13 -120 4
-137 -16 -7 -8 -23 -15 -36 -15 -32 0 -32 33 1 72 14 16 25 38 25 48 0 11 9
24 21 30 18 10 20 19 17 83 -3 82 -24 122 -78 149 -41 21 -84 22 -125 4z m124
-190 c38 -61 18 -126 -44 -142 -50 -12 -116 39 -115 88 1 25 38 58 67 58 15 0
37 7 47 15 11 8 21 15 22 15 1 0 12 -15 23 -34z m-183 -23 c-11 -11 -19 6 -11
24 8 17 8 17 12 0 3 -10 2 -21 -1 -24z m246 5 c-9 -9 -12 -7 -12 12 0 19 3 21
12 12 9 -9 9 -15 0 -24z"/>
<path d="M406 592 c-3 -6 -1 -14 5 -17 15 -10 25 3 12 16 -7 7 -13 7 -17 1z"/>
<path d="M126 541 c-4 -7 -5 -15 -2 -18 9 -9 19 4 14 18 -4 11 -6 11 -12 0z"/>
<path d="M446 542 c-3 -6 -1 -14 5 -17 14 -9 20 -2 10 14 -6 8 -11 9 -15 3z"/>
<path d="M105 471 c-3 -5 -1 -12 5 -16 5 -3 10 1 10 9 0 18 -6 21 -15 7z"/>
<path d="M471 464 c0 -11 3 -14 6 -6 3 7 2 16 -1 19 -3 4 -6 -2 -5 -13z"/>
<path d="M104 409 c-3 -6 -1 -16 5 -22 8 -8 11 -5 11 11 0 24 -5 28 -16 11z"/>
<path d="M470 400 c0 -19 3 -21 12 -12 9 9 9 15 0 24 -9 9 -12 7 -12 -12z"/>
<path d="M106 341 c-4 -5 -2 -12 3 -15 5 -4 12 -2 15 3 4 5 2 12 -3 15 -5 4
-12 2 -15 -3z"/>
<path d="M466 341 c-4 -5 -2 -12 3 -15 5 -4 12 -2 15 3 4 5 2 12 -3 15 -5 4
-12 2 -15 -3z"/>
<path d="M140 330 c0 -5 5 -10 10 -10 6 0 10 5 10 10 0 6 -4 10 -10 10 -5 0
-10 -4 -10 -10z"/>
<path d="M430 330 c0 -5 5 -10 10 -10 6 0 10 5 10 10 0 6 -4 10 -10 10 -5 0
-10 -4 -10 -10z"/>
<path d="M415 291 c-3 -5 -1 -12 5 -16 5 -3 10 1 10 9 0 18 -6 21 -15 7z"/>
<path d="M160 276 c0 -9 5 -16 10 -16 6 0 10 4 10 9 0 6 -4 13 -10 16 -5 3
-10 -1 -10 -9z"/>
<path d="M390 250 c0 -5 5 -10 10 -10 6 0 10 5 10 10 0 6 -4 10 -10 10 -5 0
-10 -4 -10 -10z"/>
<path d="M190 230 c0 -5 5 -10 10 -10 6 0 10 5 10 10 0 6 -4 10 -10 10 -5 0
-10 -4 -10 -10z"/>
<path d="M135 220 c-3 -5 1 -10 9 -10 9 0 16 5 16 10 0 6 -4 10 -9 10 -6 0
-13 -4 -16 -10z"/>
<path d="M85 189 c-4 -6 -5 -13 -2 -16 7 -7 27 6 27 18 0 12 -17 12 -25 -2z"/>
<path d="M470 175 c0 -8 -6 -15 -14 -15 -29 0 -29 -40 -1 -66 29 -27 75 -33
75 -9 0 8 7 15 15 15 23 0 18 42 -9 68 -27 25 -66 30 -66 7z m40 -20 c0 -8 7
-15 15 -15 8 0 15 -4 15 -10 0 -5 -7 -10 -15 -10 -8 0 -15 -7 -15 -15 0 -20
-6 -19 -30 5 -19 19 -19 21 -2 39 21 24 32 26 32 6z"/>
<path d="M56 141 c-4 -7 -5 -15 -2 -18 9 -9 19 4 14 18 -4 11 -6 11 -12 0z"/>
<path d="M220 121 c0 -11 67 -20 108 -14 57 9 34 22 -38 22 -38 0 -70 -4 -70
-8z"/>
<path d="M46 81 c-4 -7 -5 -15 -2 -18 9 -9 19 4 14 18 -4 11 -6 11 -12 0z"/>
<path d="M40 10 c0 -5 5 -10 10 -10 6 0 10 5 10 10 0 6 -4 10 -10 10 -5 0 -10
-4 -10 -10z"/>
</g>
</svg>
