<?xml version="1.0" standalone="no"?>
<!DOCTYPE svg PUBLIC "-//W3C//DTD SVG 20010904//EN"
 "http://www.w3.org/TR/2001/REC-SVG-20010904/DTD/svg10.dtd">
<svg version="1.0" xmlns="http://www.w3.org/2000/svg"
 width="64.000000pt" height="64.000000pt" viewBox="0 0 64.000000 64.000000"
 preserveAspectRatio="xMidYMid meet">

<g transform="translate(0.000000,64.000000) scale(0.100000,-0.100000)"
fill="#000000" stroke="none">
<path d="M56 608 c-53 -53 -71 -144 -42 -212 8 -19 24 -37 36 -41 14 -4 20
-13 18 -23 -3 -10 -20 -79 -38 -154 -48 -193 -73 -178 290 -178 365 0 339 -18
287 193 -27 107 -35 153 -26 156 84 28 74 218 -15 276 -33 22 -48 12 -36 -21
6 -14 10 -44 10 -66 l0 -41 -23 34 c-29 43 -79 69 -137 69 -42 1 -44 2 -26 15
11 8 17 18 14 21 -9 8 -48 -5 -48 -17 0 -5 -11 -2 -25 7 -30 20 -49 9 -21 -12
18 -13 17 -14 -20 -14 -52 0 -103 -27 -132 -70 l-24 -35 4 55 c3 30 7 61 9 69
8 28 -22 22 -55 -11z m21 -61 c-2 -48 2 -58 31 -91 36 -41 36 -40 22 -67 -7
-12 -21 -19 -40 -19 -39 0 -45 14 -15 34 29 19 25 42 -4 24 -24 -15 -51 -4
-51 22 0 13 7 20 20 20 11 0 20 5 20 10 0 6 -7 10 -15 10 -21 0 -19 39 5 78
11 17 22 32 24 32 3 0 4 -24 3 -53z m519 7 c18 -43 18 -64 -1 -64 -8 0 -15 -4
-15 -10 0 -5 6 -10 14 -10 19 0 28 -14 20 -34 -7 -18 -35 -21 -51 -5 -7 7 -13
7 -17 0 -4 -5 5 -18 19 -27 30 -20 24 -34 -15 -34 -19 0 -33 7 -40 19 -14 27
-14 26 23 67 28 33 32 43 30 91 -2 59 10 62 33 7z m-311 -119 c14 -13 25 -36
25 -50 0 -33 -42 -75 -75 -75 -33 0 -75 42 -75 75 0 33 42 75 75 75 14 0 37
-11 50 -25z m170 0 c14 -13 25 -36 25 -50 0 -14 -11 -37 -25 -50 -13 -14 -36
-25 -50 -25 -14 0 -37 11 -50 25 -14 13 -25 36 -25 50 0 14 11 37 25 50 13 14
36 25 50 25 14 0 37 -11 50 -25z m-147 -212 c-2 -10 -10 -18 -18 -18 -8 0 -16
8 -18 18 -2 12 3 17 18 17 15 0 20 -5 18 -17z m60 0 c-2 -10 -10 -18 -18 -18
-8 0 -16 8 -18 18 -2 12 3 17 18 17 15 0 20 -5 18 -17z"/>
<path d="M215 407 c-20 -16 -15 -44 11 -54 23 -9 51 23 38 44 -14 23 -27 26
-49 10z"/>
<path d="M385 407 c-20 -16 -15 -44 11 -54 23 -9 51 23 38 44 -14 23 -27 26
-49 10z"/>
</g>
</svg>
