<?xml version="1.0" standalone="no"?>
<!DOCTYPE svg PUBLIC "-//W3C//DTD SVG 20010904//EN"
 "http://www.w3.org/TR/2001/REC-SVG-20010904/DTD/svg10.dtd">
<svg version="1.0" xmlns="http://www.w3.org/2000/svg"
 width="64.000000pt" height="64.000000pt" viewBox="0 0 64.000000 64.000000"
 preserveAspectRatio="xMidYMid meet">

<g transform="translate(0.000000,64.000000) scale(0.100000,-0.100000)"
fill="#000000" stroke="none">
<path d="M7 632 c-2 -4 -5 -146 -5 -315 -1 -332 -2 -327 51 -314 20 6 22 11
19 67 l-4 60 111 0 111 0 0 -55 0 -55 -100 0 c-57 0 -100 -4 -100 -10 0 -5
105 -8 273 -7 l272 2 0 315 0 315 -312 2 c-172 1 -314 -1 -316 -5z m123 -67
c0 -54 0 -55 -30 -55 -30 0 -30 1 -30 55 0 54 0 55 30 55 30 0 30 -1 30 -55z
m320 0 l0 -55 -105 0 -105 0 0 55 0 55 105 0 105 0 0 -55z m170 0 c0 -54 0
-55 -30 -55 -30 0 -30 1 -30 55 0 54 0 55 30 55 30 0 30 -1 30 -55z m-330
-165 l0 -50 -110 0 -110 0 0 50 0 50 110 0 110 0 0 -50z m330 0 l0 -50 -110 0
-110 0 0 50 0 50 110 0 110 0 0 -50z m-182 -110 c8 0 12 -17 12 -50 l0 -50
-105 0 -105 0 0 50 0 49 73 4 c39 2 81 2 92 0 11 -1 26 -3 33 -3z m-308 -50
c0 -49 -1 -50 -30 -50 -29 0 -30 1 -30 50 0 49 1 50 30 50 29 0 30 -1 30 -50z
m490 0 c0 -49 -1 -50 -30 -50 -29 0 -30 1 -30 50 0 49 1 50 30 50 29 0 30 -1
30 -50z m0 -165 l0 -55 -110 0 -110 0 0 55 0 55 110 0 110 0 0 -55z"/>
</g>
</svg>
